# xmcd
#
# Track frame offsets:
#	150
#	23551
#	34468
#	48297
#	61559
#	78001
#	91471
#	106665
#	126879
#	143262
#	158188
#	173560
#
# Disc length: 2618 seconds
#
# Revision: 0
# Processed by: cddbd v1.5.2PL0 Copyright (c) Steve Scherf et al.
# Submitted via: EasyCDDAExtractor 11.0.2.1
#
DISCID=800a380c
DTITLE=Kamini - Psychostar world
DYEAR=1900
DGENRE=Rap fr
TTITLE0=Marly-Gomont
TTITLE1=Un p'tit coup de motherfuck
TTITLE2=Psychostar Show
TTITLE3=Chevalier
TTITLE4=Frustration
TTITLE5=Interlude (Bien gamin)
TTITLE6=J'suis blanc
TTITLE7=Psychostar world
TTITLE8=Schizophrène
TTITLE9=Faisons quequette
TTITLE10=Le deni
TTITLE11=Petits patelins
EXTD=
EXTT0=
EXTT1=
EXTT2=
EXTT3=
EXTT4=
EXTT5=
EXTT6=
EXTT7=
EXTT8=
EXTT9=
EXTT10=
EXTT11=
PLAYORDER=
